<svg width="580" height="580" xmlns="http://www.w3.org/2000/svg" preserveAspectRatio="xMidYMid meet">
 <defs>
  <path d="m153.83,81.16c0,35.21 -30.38,63.8 -67.8,63.8c-37.42,0 -67.79,-28.59 -67.79,-63.8c0,-35.22 30.37,-63.81 67.79,-63.81c37.42,0 67.8,28.59 67.8,63.81z" id="b5s7TZTf2X"/>
  <path d="m300.4,206.76c13.75,0 24.89,11.15 24.89,24.9c0,19.02 0,51.19 0,70.21c0,13.75 -11.14,24.89 -24.89,24.89c-19.25,0 -52.13,0 -71.39,0c-13.75,0 -24.89,-11.14 -24.89,-24.89c0,-19.02 0,-51.19 0,-70.21c0,-13.75 11.14,-24.9 24.89,-24.9c19.26,0 52.14,0 71.39,0z" id="d1xJb2DoHT"/>
  <path d="m276.66,503.99c0,35.21 -30.38,63.8 -67.8,63.8c-37.42,0 -67.79,-28.59 -67.79,-63.8c0,-35.22 30.37,-63.81 67.79,-63.81c37.42,0 67.8,28.59 67.8,63.81z" id="f4Gpvzn0mZ"/>
  <path d="m565.37,300.59c0,35.21 -30.38,63.8 -67.8,63.8c-37.41,0 -67.79,-28.59 -67.79,-63.8c0,-35.22 30.38,-63.81 67.79,-63.81c37.42,0 67.8,28.59 67.8,63.81z" id="e5eNxNRdrc"/>
  <path d="m160.4,184.48l43.72,13.01l-8.95,-44.72l-11.02,10.05l-27.92,-30.62l-12.76,11.63l27.93,30.62l-11,10.03z" id="a3jqBX1fc4"/>
  <path d="m263.01,387.62l-14.12,-43.37l-31.73,32.77l14.54,3.36l-9.34,40.37l16.82,3.89l9.34,-40.37l14.49,3.35z" id="abWlyYKqG"/>
  <path d="m382.97,254.12l-43.18,14.68l33.17,31.3l3.18,-14.58l40.49,8.82l3.67,-16.87l-40.49,-8.81l3.16,-14.54z" id="a2pwhcuyqx"/>
 </defs>
 <g>
  <title>Layer 1</title>
  <ellipse fill="#00ff7f" stroke="#7f00ff" stroke-width="20" stroke-dasharray="null" opacity="undefined" cx="88.24436" cy="97.83457" id="svg_27" rx="67.5" ry="67.5" transform="rotate(-115.857, 88.2444, 97.835)"/>
  <ellipse fill="#00ff7f" stroke="#7f00ff" stroke-width="20" stroke-dasharray="null" opacity="undefined" cx="483.37682" cy="474.8791" id="svg_28" rx="67.5" ry="67.5" transform="rotate(-115.857, 483.377, 474.879)"/>
  <rect fill="#7f00ff" stroke="#7f00ff" stroke-width="20" stroke-dasharray="null" opacity="undefined" x="280.90517" y="99.91626" width="2" height="384.51843" id="svg_44" transform="rotate(-45.3715, 281.905, 292.175)"/>
  <path fill="#fc94fc" stroke="#ff00ff" stroke-width="20" stroke-dasharray="null" opacity="undefined" d="m192.89399,284.91877l81.34147,-84.00839l81.34147,84.00839l-81.34147,84.00839l-81.34147,-84.00839z" id="svg_30" transform="rotate(-43.6363, 274.236, 284.918)"/>
 </g>
</svg>