<svg width="580" height="580" xmlns="http://www.w3.org/2000/svg" preserveAspectRatio="xMidYMid meet">
 <defs>
  <path id="b5s7TZTf2X" d="m153.83,81.16c0,35.21 -30.38,63.8 -67.8,63.8c-37.42,0 -67.79,-28.59 -67.79,-63.8c0,-35.22 30.37,-63.81 67.79,-63.81c37.42,0 67.8,28.59 67.8,63.81z"/>
  <path id="d1xJb2DoHT" d="m300.4,206.76c13.75,0 24.89,11.15 24.89,24.9c0,19.02 0,51.19 0,70.21c0,13.75 -11.14,24.89 -24.89,24.89c-19.25,0 -52.13,0 -71.39,0c-13.75,0 -24.89,-11.14 -24.89,-24.89c0,-19.02 0,-51.19 0,-70.21c0,-13.75 11.14,-24.9 24.89,-24.9c19.26,0 52.14,0 71.39,0z"/>
  <path id="f4Gpvzn0mZ" d="m276.66,503.99c0,35.21 -30.38,63.8 -67.8,63.8c-37.42,0 -67.79,-28.59 -67.79,-63.8c0,-35.22 30.37,-63.81 67.79,-63.81c37.42,0 67.8,28.59 67.8,63.81z"/>
  <path id="e5eNxNRdrc" d="m565.37,300.59c0,35.21 -30.38,63.8 -67.8,63.8c-37.41,0 -67.79,-28.59 -67.79,-63.8c0,-35.22 30.38,-63.81 67.79,-63.81c37.42,0 67.8,28.59 67.8,63.81z"/>
  <path id="a3jqBX1fc4" d="m160.4,184.48l43.72,13.01l-8.95,-44.72l-11.02,10.05l-27.92,-30.62l-12.76,11.63l27.93,30.62l-11,10.03z"/>
  <path id="abWlyYKqG" d="m263.01,387.62l-14.12,-43.37l-31.73,32.77l14.54,3.36l-9.34,40.37l16.82,3.89l9.34,-40.37l14.49,3.35z"/>
  <path id="a2pwhcuyqx" d="m382.97,254.12l-43.18,14.68l33.17,31.3l3.18,-14.58l40.49,8.82l3.67,-16.87l-40.49,-8.81l3.16,-14.54z"/>
 </defs>
 <g>
  <title>Layer 1</title>
  <ellipse fill="#ffffff" stroke="#00bf5f" stroke-width="80" stroke-dasharray="null" opacity="undefined" cx="339.49999" cy="274.50001" id="svg_3" rx="188.50001" ry="188.50001"/>
  <rect fill="#ffffff" stroke="#ffffff" stroke-width="60" stroke-dasharray="null" fill-opacity="null" opacity="undefined" x="118.99999" y="207.49998" width="94.00001" height="134" id="svg_5"/>
  <path fill="#ff0000" stroke="#ff7f00" stroke-width="60" stroke-dasharray="null" opacity="undefined" d="m297.97112,302.03788l26.99855,-55.07781l26.99855,55.07781l-53.99711,0z" id="svg_6" transform="rotate(90, 324.97, 274.498)"/>
  <rect fill="#ff7f00" stroke="#ff7f00" stroke-width="10" stroke-dasharray="null" opacity="undefined" x="27.99998" y="247.49998" width="235.00002" height="54" id="svg_7"/>
 </g>
</svg>