<svg width="580" height="580" xmlns="http://www.w3.org/2000/svg">
 <g>
  <title>Layer 1</title>
  <path id="svg_2" d="m346.61532,372.50134l35.88602,-35.88602l53.57631,53.82903l53.57631,-53.82903l35.88602,35.88602l-53.82903,53.57631l53.82903,53.57631l-35.88602,35.88602l-53.57631,-53.82903l-53.57631,53.82903l-35.88602,-35.88602l53.82903,-53.57631l-53.82903,-53.57631m-239.07163,-325.50134l353.8058,0c28.05175,0 50.54369,22.49194 50.54369,50.54369l0,197.12038c-15.41582,-8.84515 -32.34796,-15.16311 -50.54369,-18.19573l0,-178.92465l-353.8058,0l0,353.8058l178.92465,0c3.03262,18.19573 9.35058,35.12786 18.19573,50.54369l-197.12038,0c-28.05175,0 -50.54369,-22.49194 -50.54369,-50.54369l0,-353.8058c0,-28.05175 22.49194,-50.54369 50.54369,-50.54369" fill="#d86704"/>
 </g>

</svg>