<svg width="580" height="580" xmlns="http://www.w3.org/2000/svg" preserveAspectRatio="xMidYMid meet">
 <defs>
  <path id="b5s7TZTf2X" d="m153.83,81.16c0,35.21 -30.38,63.8 -67.8,63.8c-37.42,0 -67.79,-28.59 -67.79,-63.8c0,-35.22 30.37,-63.81 67.79,-63.81c37.42,0 67.8,28.59 67.8,63.81z"/>
  <path id="d1xJb2DoHT" d="m300.4,206.76c13.75,0 24.89,11.15 24.89,24.9c0,19.02 0,51.19 0,70.21c0,13.75 -11.14,24.89 -24.89,24.89c-19.25,0 -52.13,0 -71.39,0c-13.75,0 -24.89,-11.14 -24.89,-24.89c0,-19.02 0,-51.19 0,-70.21c0,-13.75 11.14,-24.9 24.89,-24.9c19.26,0 52.14,0 71.39,0z"/>
  <path id="f4Gpvzn0mZ" d="m276.66,503.99c0,35.21 -30.38,63.8 -67.8,63.8c-37.42,0 -67.79,-28.59 -67.79,-63.8c0,-35.22 30.37,-63.81 67.79,-63.81c37.42,0 67.8,28.59 67.8,63.81z"/>
  <path id="e5eNxNRdrc" d="m565.37,300.59c0,35.21 -30.38,63.8 -67.8,63.8c-37.41,0 -67.79,-28.59 -67.79,-63.8c0,-35.22 30.38,-63.81 67.79,-63.81c37.42,0 67.8,28.59 67.8,63.81z"/>
  <path id="a3jqBX1fc4" d="m160.4,184.48l43.72,13.01l-8.95,-44.72l-11.02,10.05l-27.92,-30.62l-12.76,11.63l27.93,30.62l-11,10.03z"/>
  <path id="abWlyYKqG" d="m263.01,387.62l-14.12,-43.37l-31.73,32.77l14.54,3.36l-9.34,40.37l16.82,3.89l9.34,-40.37l14.49,3.35z"/>
  <path id="a2pwhcuyqx" d="m382.97,254.12l-43.18,14.68l33.17,31.3l3.18,-14.58l40.49,8.82l3.67,-16.87l-40.49,-8.81l3.16,-14.54z"/>
 </defs>
 <g>
  <title>Layer 1</title>
  <ellipse ry="111.5" rx="111.5" id="svg_31" cy="133.84647" cx="455" opacity="undefined" stroke-dasharray="null" stroke-width="20" stroke="#ff5656" fill="#ffffff"/>
  <ellipse ry="111.5" rx="111.5" id="svg_30" cy="438.33884" cx="146" opacity="undefined" stroke-dasharray="null" stroke-width="20" stroke="#007fff" fill="#ffffff"/>
  <text fill="#ff5656" stroke="#ff5656" stroke-width="0" stroke-dasharray="null" opacity="undefined" x="282.76847" y="339.31185" id="svg_4" font-size="120" font-family="'Nunito'" text-anchor="start" xml:space="preserve" font-weight="bold" transform="matrix(1.58065, 0, 0, 1.57463, -48.8614, -338.325)">1</text>
  <text fill="#007fff" stroke="#007fff" stroke-width="0" stroke-dasharray="null" opacity="undefined" x="266.02781" y="318.18848" id="svg_3" font-size="120" font-family="'Nunito'" text-anchor="start" xml:space="preserve" font-weight="bold" transform="matrix(1.63871, 0, 0, 1.63871, -348.936, -18.4327)">2</text>
  <g transform="matrix(-0.624038, 0.547769, -0.524514, -0.651705, 568.722, 417.357)" id="svg_25">
   <g transform="matrix(0.328836, 0, 0, 0.328836, 30.5662, 31.9117)" id="svg_7">
    <g id="svg_8">
     <path stroke="#000000" fill="#000000" id="svg_9" d="m594.21767,888.18675l-177.68,-177.684c-5.072,-5.072 -11.832,-7.856 -19.04,-7.856c-7.216,0 -13.972,2.788 -19.044,7.856l-16.132,16.136c-5.068,5.064 -7.86,11.828 -7.86,19.04c0,7.208 2.792,14.2 7.86,19.264l103.656,103.884l-329.32,0c-14.848,0 -26.58,11.624 -26.58,26.476l0,22.812c0,14.852 11.732,27.648 26.58,27.648l330.496,0l-104.828,104.464c-5.068,5.072 -7.86,11.652 -7.86,18.864c0,7.204 2.792,13.88 7.86,18.948l16.132,16.084c5.072,5.072 11.828,7.836 19.044,7.836c7.208,0 13.968,-2.8 19.04,-7.872l177.68,-177.68c5.084,-5.088 7.88,-11.88 7.86,-19.1c0.016,-7.244 -2.776,-14.04 -7.864,-19.12z"/>
    </g>
   </g>
   <g transform="matrix(0.328836, 0, 0, 0.328836, 30.5662, 31.9117)" id="svg_10"/>
   <g transform="matrix(0.328836, 0, 0, 0.328836, 30.5662, 31.9117)" id="svg_11"/>
   <g transform="matrix(0.328836, 0, 0, 0.328836, 30.5662, 31.9117)" id="svg_12"/>
   <g transform="matrix(0.328836, 0, 0, 0.328836, 30.5662, 31.9117)" id="svg_13"/>
   <g transform="matrix(0.328836, 0, 0, 0.328836, 30.5662, 31.9117)" id="svg_14"/>
   <g transform="matrix(0.328836, 0, 0, 0.328836, 30.5662, 31.9117)" id="svg_15"/>
   <g transform="matrix(0.328836, 0, 0, 0.328836, 30.5662, 31.9117)" id="svg_16"/>
   <g transform="matrix(0.328836, 0, 0, 0.328836, 30.5662, 31.9117)" id="svg_17"/>
   <g transform="matrix(0.328836, 0, 0, 0.328836, 30.5662, 31.9117)" id="svg_18"/>
   <g transform="matrix(0.328836, 0, 0, 0.328836, 30.5662, 31.9117)" id="svg_19"/>
   <g transform="matrix(0.328836, 0, 0, 0.328836, 30.5662, 31.9117)" id="svg_20"/>
   <g transform="matrix(0.328836, 0, 0, 0.328836, 30.5662, 31.9117)" id="svg_21"/>
   <g transform="matrix(0.328836, 0, 0, 0.328836, 30.5662, 31.9117)" id="svg_22"/>
   <g transform="matrix(0.328836, 0, 0, 0.328836, 30.5662, 31.9117)" id="svg_23"/>
   <g transform="matrix(0.328836, 0, 0, 0.328836, 30.5662, 31.9117)" id="svg_24"/>
  </g>
 </g>
</svg>