<svg width="580" height="580" xmlns="http://www.w3.org/2000/svg" preserveAspectRatio="xMidYMid meet">
 <defs>
  <path id="b5s7TZTf2X" d="m153.83,81.16c0,35.21 -30.38,63.8 -67.8,63.8c-37.42,0 -67.79,-28.59 -67.79,-63.8c0,-35.22 30.37,-63.81 67.79,-63.81c37.42,0 67.8,28.59 67.8,63.81z"/>
  <path id="d1xJb2DoHT" d="m300.4,206.76c13.75,0 24.89,11.15 24.89,24.9c0,19.02 0,51.19 0,70.21c0,13.75 -11.14,24.89 -24.89,24.89c-19.25,0 -52.13,0 -71.39,0c-13.75,0 -24.89,-11.14 -24.89,-24.89c0,-19.02 0,-51.19 0,-70.21c0,-13.75 11.14,-24.9 24.89,-24.9c19.26,0 52.14,0 71.39,0z"/>
  <path id="f4Gpvzn0mZ" d="m276.66,503.99c0,35.21 -30.38,63.8 -67.8,63.8c-37.42,0 -67.79,-28.59 -67.79,-63.8c0,-35.22 30.37,-63.81 67.79,-63.81c37.42,0 67.8,28.59 67.8,63.81z"/>
  <path id="e5eNxNRdrc" d="m565.37,300.59c0,35.21 -30.38,63.8 -67.8,63.8c-37.41,0 -67.79,-28.59 -67.79,-63.8c0,-35.22 30.38,-63.81 67.79,-63.81c37.42,0 67.8,28.59 67.8,63.81z"/>
  <path id="a3jqBX1fc4" d="m160.4,184.48l43.72,13.01l-8.95,-44.72l-11.02,10.05l-27.92,-30.62l-12.76,11.63l27.93,30.62l-11,10.03z"/>
  <path id="abWlyYKqG" d="m263.01,387.62l-14.12,-43.37l-31.73,32.77l14.54,3.36l-9.34,40.37l16.82,3.89l9.34,-40.37l14.49,3.35z"/>
  <path id="a2pwhcuyqx" d="m382.97,254.12l-43.18,14.68l33.17,31.3l3.18,-14.58l40.49,8.82l3.67,-16.87l-40.49,-8.81l3.16,-14.54z"/>
 </defs>
 <g>
  <title>Layer 1</title>
  <ellipse transform="rotate(-115.857, 79.2444, 410.835)" ry="67.5" rx="67.5" id="svg_27" cy="410.83457" cx="79.24436" opacity="undefined" stroke-dasharray="null" stroke-width="20" stroke="#7f00ff" fill="#00ff7f"/>
  <ellipse transform="rotate(-115.857, 504.377, 392.879)" ry="67.5" rx="67.5" id="svg_28" cy="392.8791" cx="504.37682" opacity="undefined" stroke-dasharray="null" stroke-width="20" stroke="#7f00ff" fill="#00ff7f"/>
  <rect transform="rotate(-91.6808, 292.752, 400.696)" id="svg_44" height="257.46895" width="2" y="271.961" x="291.75228" opacity="undefined" stroke-dasharray="null" stroke-width="20" stroke="#7f00ff" fill="#7f00ff"/>
  <path transform="rotate(-89.477, 291.043, 401.066)" id="svg_30" d="m230.04212,401.06761l61,-62.99999l61,62.99999l-61,62.99999l-61,-62.99999z" opacity="undefined" stroke-dasharray="null" stroke-width="20" stroke="#7f00ff" fill="#ffffff"/>
  <ellipse transform="rotate(-115.857, 289.6, 95.8589)" ry="67.5" rx="67.5" id="svg_45" cy="95.85888" cx="289.59979" opacity="undefined" stroke-dasharray="null" stroke-width="20" stroke="#00bf5f" fill="#ffaaff"/>
  <g transform="rotate(-116.868, 287.112, 243.734)" id="svg_46">
   <rect transform="rotate(-62.4583, 295.567, 248.746)" id="svg_32" height="65.38742" width="0.69231" y="216.05228" x="295.22066" opacity="undefined" stroke-dasharray="null" stroke-width="20" stroke="#aa9e9e" fill="#8c8885"/>
   <path transform="rotate(-62.4583, 251.964, 226.007)" id="svg_33" d="m247.46432,228.77593l4.49934,-5.53821l4.49934,5.53821l-8.99868,0z" opacity="undefined" stroke-dasharray="null" stroke-width="20" stroke="#afa5a5" fill="#8c8885"/>
  </g>
 </g>
</svg>