<svg width="580" height="580" xmlns="http://www.w3.org/2000/svg" preserveAspectRatio="xMidYMid meet">
 <defs>
  <path d="m153.83,81.16c0,35.21 -30.38,63.8 -67.8,63.8c-37.42,0 -67.79,-28.59 -67.79,-63.8c0,-35.22 30.37,-63.81 67.79,-63.81c37.42,0 67.8,28.59 67.8,63.81z" id="b5s7TZTf2X"/>
  <path d="m300.4,206.76c13.75,0 24.89,11.15 24.89,24.9c0,19.02 0,51.19 0,70.21c0,13.75 -11.14,24.89 -24.89,24.89c-19.25,0 -52.13,0 -71.39,0c-13.75,0 -24.89,-11.14 -24.89,-24.89c0,-19.02 0,-51.19 0,-70.21c0,-13.75 11.14,-24.9 24.89,-24.9c19.26,0 52.14,0 71.39,0z" id="d1xJb2DoHT"/>
  <path d="m276.66,503.99c0,35.21 -30.38,63.8 -67.8,63.8c-37.42,0 -67.79,-28.59 -67.79,-63.8c0,-35.22 30.37,-63.81 67.79,-63.81c37.42,0 67.8,28.59 67.8,63.81z" id="f4Gpvzn0mZ"/>
  <path d="m565.37,300.59c0,35.21 -30.38,63.8 -67.8,63.8c-37.41,0 -67.79,-28.59 -67.79,-63.8c0,-35.22 30.38,-63.81 67.79,-63.81c37.42,0 67.8,28.59 67.8,63.81z" id="e5eNxNRdrc"/>
  <path d="m160.4,184.48l43.72,13.01l-8.95,-44.72l-11.02,10.05l-27.92,-30.62l-12.76,11.63l27.93,30.62l-11,10.03z" id="a3jqBX1fc4"/>
  <path d="m263.01,387.62l-14.12,-43.37l-31.73,32.77l14.54,3.36l-9.34,40.37l16.82,3.89l9.34,-40.37l14.49,3.35z" id="abWlyYKqG"/>
  <path d="m382.97,254.12l-43.18,14.68l33.17,31.3l3.18,-14.58l40.49,8.82l3.67,-16.87l-40.49,-8.81l3.16,-14.54z" id="a2pwhcuyqx"/>
 </defs>
 <g>
  <title>Layer 1</title>
  <g id="svg_66">
   <g transform="matrix(0.930786, 0, 0, 0.930786, -96.0827, -135.806)" id="svg_65">
    <title>Layer 1</title>
    <g id="svg_60">
     <g id="svg_61">
      <path d="m628.63521,261.89988c-3.614,-3.612 -7.898,-5.424 -12.848,-5.424c-4.948,0 -9.226,1.812 -12.847,5.424l-37.113,36.835c-20.365,-19.226 -43.684,-34.123 -69.948,-44.684c-26.262,-10.562 -53.297,-15.842 -81.087,-15.842c-52.344,0 -98.022,15.843 -137.042,47.536c-39.021,31.689 -64.715,73.035 -77.087,124.048l0,1.997c0,2.474 0.903,4.617 2.712,6.423c1.809,1.809 3.949,2.712 6.423,2.712l56.814,0c4.189,0 7.042,-2.19 8.566,-6.565c7.993,-19.032 13.035,-30.166 15.131,-33.403c13.322,-21.698 31.023,-38.734 53.103,-51.106c22.082,-12.371 45.873,-18.559 71.376,-18.559c38.261,0 71.473,13.039 99.645,39.115l-39.406,39.397c-3.607,3.617 -5.421,7.902 -5.421,12.851c0,4.948 1.813,9.231 5.421,12.847c3.621,3.617 7.905,5.424 12.854,5.424l127.906,0c4.949,0 9.233,-1.807 12.848,-5.424c3.613,-3.616 5.42,-7.898 5.42,-12.847l0,-127.907c0,-4.949 -1.796,-9.23 -5.42,-12.848z" id="svg_63" fill="#007fff"/>
      <path d="m617.77921,494.01888l-54.816,0c-4.188,0 -7.043,2.187 -8.562,6.566c-7.99,19.034 -13.038,30.163 -15.129,33.4c-13.326,21.693 -31.028,38.735 -53.102,51.106c-22.083,12.375 -45.874,18.556 -71.378,18.556c-18.461,0 -36.259,-3.423 -53.387,-10.273c-17.13,-6.858 -32.454,-16.567 -45.966,-29.13l39.115,-39.112c3.615,-3.613 5.424,-7.901 5.424,-12.847c0,-4.948 -1.809,-9.236 -5.424,-12.847c-3.617,-3.62 -7.898,-5.431 -12.847,-5.431l-127.907,0c-4.952,0 -9.235,1.811 -12.851,5.431c-3.616,3.612 -5.423,7.9 -5.423,12.848l0,127.907c0,4.945 1.807,9.232 5.424,12.847c3.619,3.61 7.902,5.428 12.851,5.428c4.948,0 9.229,-1.817 12.847,-5.428l36.829,-36.833c20.367,19.41 43.542,34.355 69.523,44.823c25.981,10.472 52.866,15.701 80.653,15.701c52.155,0 97.643,-15.845 136.471,-47.534c38.828,-31.688 64.333,-73.042 76.52,-124.05c0.191,-0.38 0.281,-1.047 0.281,-1.995c0,-2.478 -0.907,-4.612 -2.715,-6.427c-1.81,-1.799 -3.953,-2.706 -6.431,-2.706z" id="svg_62" fill="#007fff"/>
     </g>
    </g>
    <g id="svg_59"/>
    <g id="svg_58"/>
    <g id="svg_57"/>
    <g id="svg_56"/>
    <g id="svg_55"/>
    <g id="svg_54"/>
    <g id="svg_53"/>
    <g id="svg_52"/>
    <g id="svg_51"/>
    <g id="svg_50"/>
    <g id="svg_49"/>
    <g id="svg_48"/>
    <g id="svg_47"/>
    <g id="svg_46"/>
    <g id="svg_45"/>
   </g>
  </g>
 </g>
</svg>