<svg xmlns="http://www.w3.org/2000/svg" width="580" height="580" style=""><rect id="backgroundrect" width="100%" height="100%" x="0" y="0" fill="none" stroke="none" style="" class=""/><g class="currentLayer" style=""><title>Layer 1</title><path d="m47.00000178628794,503.58807733136103 h475.04639977425967 v31.411966611433655 h-475.04639977425967 z" id="svg_2" class="" fill="#919191" fill-opacity="1"/><path d="m196.78533508881384,275.03764406676726 c-34.648696783535065,0 -72.53364716553229,16.89963803695131 -103.11475915100024,33.076800841839635 c-22.356871189376104,11.842311412510492 -37.11299998236404,21.422961228997764 -45.337240778455914,26.920055385998648 v37.411652234217485 l8.224240796091872,-5.842625789726661 c0,0 21.52553998977115,-15.203391839933891 50.32522797608565,-30.438195646479215 c28.79968798631449,-15.234803806545326 65.14073756904536,-29.747132381027676 89.96191195725042,-29.747132381027676 c9.886903195301786,0 22.0302767895313,5.716977923280928 35.598789583083594,16.49128247100267 c13.568512793552296,10.77430454772175 28.116808786639,26.00910835426707 42.96200877958461,41.7150916599839 c14.845199992945615,15.705983305716828 29.987303985750142,31.883146110605153 46.10919117808908,44.66781652145866 c16.12188719233894,12.7846704108535 33.66891358400065,22.773675793289406 53.472410374590105,22.773675793289406 c34.648696783535065,0 72.53364716553229,-16.89963803695131 103.11475915100024,-33.076800841839635 c22.356871189376104,-11.810899445899059 37.11299998236404,-21.422961228997764 45.337240778455914,-26.920055385998648 v-37.411652234217485 l-8.224240796091872,5.842625789726661 c0,0 -21.52553998977115,15.203391839933891 -50.32522797608565,30.438195646479215 c-28.79968798631449,15.234803806545326 -65.14073756904536,29.747132381027676 -89.96191195725042,29.747132381027676 c-9.886903195301786,0 -22.0302767895313,-5.6541539900580595 -35.598789583083594,-16.428458537779804 c-13.568512793552296,-10.77430454772175 -28.116808786639,-26.07193228748994 -42.96200877958461,-41.777915593206764 c-14.845199992945615,-15.705983305716828 -29.987303985750142,-31.820322177382284 -46.10919117808908,-44.604992588235795 c-16.12188719233894,-12.7846704108535 -33.66891358400065,-22.836499726512272 -53.472410374590105,-22.836499726512272 " mix-blend-mode="normal" isolation="auto" white-space="normal" solid-opacity="1" solid-color="#000000" id="svg_4" class="selected" fill="#f9782c" fill-opacity="1" opacity="1"/><path d="m283.33558567398154,32.40857815985614 c-10.124426395188914,0 -19.684735190645895,4.0207317262635085 -26.78074078727389,10.36594898177311 c-7.0960055966280065,6.345217255509597 -11.935540794328276,14.480916607870915 -15.706221592536464,23.182031359238046 c-7.5413615964163725,17.402229502734244 -11.193280794680996,37.85141976677755 -15.023342392860963,57.452486932312155 c-3.8300615981799684,19.63247913214604 -7.778884796303502,38.41683516578336 -13.004395193820361,50.47903034457389 c-2.612755198758431,6.031097589395263 -5.403652797432205,10.146065215493076 -7.897646396247069,12.376314844904867 c-2.4939935988148654,2.23024962941179 -4.423869597897796,3.1411966611433657 -8.37269279602133,3.1411966611433657 c-3.8300615981799684,0 -5.670866397305227,-0.8795350651201429 -8.19455039610598,-3.2040205943662334 c-2.5236839988007564,-2.3244855292460915 -5.433343197418097,-6.659336921623937 -8.075788796162417,-12.878906310687801 c-5.2848911974886414,-12.470550744739167 -9.204023995626283,-31.820322177382284 -13.063775993792143,-51.76692097564267 c-3.8300615981799684,-19.94659879826038 -7.48198079644459,-40.39578906230368 -15.082723192832743,-57.703782665203626 c-3.8003711981940773,-8.638290818144256 -8.758667995837916,-16.773990170505577 -16.092196792353047,-22.867911693123713 c-7.333528796515135,-6.093921522618131 -17.25012239180282,-9.392178016818667 -27.404239186977605,-8.51264295169852 c-19.387831190786986,1.6962461970174187 -33.25324798419819,17.119521803231347 -42.308819979895,34.33327950629698 c-9.055571995696827,17.24516966967708 -14.815509592959728,37.85141976677755 -18.9721655909845,58.08072626454084 c-0.11876159994356507,0.5968273656172395 -0.17814239991534775,1.1308307980116128 -0.029690399985891274,1.7276581636288526 h29.69039998589123 c3.740990398222295,-16.648342304059838 8.63990639589435,-32.85691707555961 14.637367193044378,-44.29087292212146 c6.620959196853747,-12.62761057779633 12.945014393848579,-17.96764490174006 19.447211990758763,-18.533060300745863 c3.8597519981658603,-0.3455316327257708 5.433343197418097,0.03141196661143368 7.6304327963740475,2.1360137295774897 c2.197089598955951,1.8218940634631537 4.958296797643837,5.559918090223759 7.511671196430481,11.40254387995042 c5.136439197559183,11.685251579453322 9.055571995696827,30.75231531259355 12.885633593876797,50.66750214424249 c3.8300615981799684,19.915186831648946 7.571051996402266,40.70990872841802 15.082723192832743,58.457669863878046 c3.740990398222295,8.858174584424294 8.521144795950786,17.150933769842776 15.587459992592896,23.684622825020984 c7.066315196642112,6.502277088566768 16.715695192056767,10.68006864788745 26.95888318718924,10.68006864788745 c10.124426395188914,0 19.684735190645895,-3.9579077930406408 26.78074078727389,-10.30312504855024 c7.0960055966280065,-6.345217255509597 11.935540794328276,-14.543740541093785 15.706221592536464,-23.244855292460908 c7.5413615964163725,-17.402229502734244 11.193280794680996,-37.788595833554695 15.023342392860963,-57.38966299908929 c3.8300615981799684,-19.63247913214604 7.778884796303502,-38.479659099006234 13.004395193820361,-50.541854277796745 c2.612755198758431,-6.031097589395263 5.403652797432205,-10.083241282270206 7.897646396247069,-12.313490911681997 c2.4939935988148654,-2.23024962941179 4.423869597897796,-3.2040205943662334 8.37269279602133,-3.2040205943662334 c3.919132798137643,0 5.8193183972346825,0.910947031731577 8.253931196077763,3.1411966611433657 c2.4346127988430832,2.198837662800357 5.1958199975309665,6.313805288898165 7.749194396317611,12.313490911681997 c5.1067487975732915,12.030783212179093 8.87742959578148,30.877963179039288 12.588729594017884,50.541854277796745 c3.7112999982364028,19.663891098757475 7.422599996472807,40.050257429577904 15.082723192832743,57.51531086553502 c3.8300615981799684,8.732526717978558 8.758667995837916,16.96246197017417 15.973435192409482,23.307679225683778 c7.214767196571572,6.313805288898165 16.864147191986223,10.177477182104509 27.107335187118693,10.177477182104509 c10.24318799513248,0 19.922258390533024,-3.895083859817775 27.107335187118693,-10.240301115327375 c7.185076796585678,-6.345217255509597 12.05430239427184,-14.57515250770522 15.824983192480028,-23.307679225683778 c7.511671196430481,-17.496465402568543 11.015138394765653,-37.914243700000426 14.637367193044378,-57.51531086553502 c3.6222287982787322,-19.63247913214604 7.333528796515135,-38.4482471323948 12.499658394060209,-50.41620641135101 c2.583064798772538,-5.9682736561723955 5.373962397446314,-10.020417349047339 7.897646396247069,-12.250666978459128 c2.5236839988007564,-2.23024962941179 4.6020119978131415,-3.2354325609776677 8.818048795809696,-3.2354325609776677 c8.432073595993112,0 14.340463193185467,4.837442858160785 21.020803190010998,16.931050003562742 c6.294364797008944,11.371131913338987 11.25266159465278,28.36500585012459 14.696747993016164,45.86147125269314 h29.54194798596177 c-0.17814239991534775,-1.0365948981773112 -0.2672135998730218,-2.010365863131755 -0.4453559997883689,-3.0783727279205007 c-3.8003711981940773,-20.60625009710048 -9.322785595569849,-41.58944379353816 -18.91278479101272,-58.92884936304955 c-9.589999195442871,-17.37081753612281 -25.38529198793701,-32.19726577671949 -45.87166797820195,-32.19726577671949 c-10.24318799513248,0 -19.922258390533024,3.9579077930406408 -27.107335187118693,10.30312504855024 c-7.185076796585678,6.345217255509597 -12.05430239427184,14.57515250770522 -15.824983192480028,23.307679225683778 c-7.511671196430481,17.496465402568543 -11.015138394765653,37.914243700000426 -14.637367193044378,57.51531086553502 c-3.6222287982787322,19.63247913214604 -7.333528796515135,38.4482471323948 -12.499658394060209,50.41620641135101 c-2.583064798772538,5.9682736561723955 -5.373962397446314,10.020417349047339 -7.897646396247069,12.250666978459128 c-2.5236839988007564,2.23024962941179 -4.6020119978131415,3.2040205943662334 -8.818048795809696,3.2040205943662334 c-4.216036797996556,0 -6.353745596980724,-1.005182931565878 -8.936810395753263,-3.2354325609776677 c-2.583064798772538,-2.2616615960232247 -5.463033597403988,-6.345217255509597 -8.075788796162417,-12.313490911681997 c-5.2552007975027495,-11.967959278956227 -9.114952795668612,-30.75231531259355 -12.826252793905017,-50.353382478128154 c-3.7112999982364028,-19.601067165534605 -7.303838396529244,-39.987433496355045 -14.696747993016164,-57.38966299908929 c-3.7112999982364028,-8.701114751367124 -8.432073595993112,-16.868226070339873 -15.46869839264933,-23.244855292460908 c-7.066315196642112,-6.376629222121031 -16.65631439208498,-10.42877291499598 -26.78074078727389,-10.42877291499598 " mix-blend-mode="normal" isolation="auto" white-space="normal" solid-opacity="1" solid-color="#000000" id="svg_5" class="" fill="#54b6f7" fill-opacity="1"/></g></svg>