<svg width="580" height="581.3333129882812" xmlns="http://www.w3.org/2000/svg" style=""><rect id="backgroundrect" width="100%" height="100%" x="0" y="0" fill="none" stroke="none" style="" class=""/>
 <g style="" class="currentLayer">
  <title>Layer 1</title>
  
 <rect fill="#1aeb1a" style="color: rgb(0, 0, 0);" stroke-dashoffset="" fill-rule="nonzero" id="svg_2" x="81.66665649414062" y="64" width="424.66668701171875" height="95.66667175292969" class="" fill-opacity="1"/><rect fill="#6767e7" style="color: rgb(0, 0, 0);" stroke-dashoffset="" fill-rule="nonzero" x="81.66665649414062" y="160.00001525878906" width="424.66668701171875" height="95.66667175292969" class="" fill-opacity="1" id="svg_7"/><rect fill="#e841e8" style="color: rgb(0, 0, 0);" stroke-dashoffset="" fill-rule="nonzero" x="81.66665649414062" y="255.33334350585938" width="424.66668701171875" height="95.66667175292969" class="" fill-opacity="1" id="svg_8"/><path d="M255.00000649459616,235.3333400126212 C211.7208361518476,235.3333400126212 176.66666650772095,266.8310588572243 176.66666650772095,305.71930391117576 V428.89474073364624 C176.66666650772095,448.25088080574875 194.29166800476787,464.0877226829235 215.83333650115856,464.0877226829235 H274.58334149131497 V534.4736865814781 C274.58334149131497,553.8298266535805 292.2083429883619,569.6666685307554 313.7500114847526,569.6666685307554 H352.9166814781902 C374.45834997458087,569.6666685307554 392.0833514716278,553.8298266535805 392.0833514716278,534.4736865814781 V464.0877226829235 H450.8333564617842 C472.3750249581749,464.0877226829235 490.0000264552218,448.25088080574875 490.0000264552218,428.89474073364624 V235.3333400126212 H255.00000649459616 M255.00000649459616,270.5263219618985 H333.33334648147144 V305.71930391117576 H372.500016474909 V270.5263219618985 H392.0833514716278 V340.91228586045304 H431.2500214650654 V270.5263219618985 H450.8333564617842 V358.5087768350917 H215.83333650115856 V305.71930391117576 C215.83333650115856,286.36316383907325 233.45833799820548,270.5263219618985 255.00000649459616,270.5263219618985 M215.83333650115856,428.89474073364624 V393.70175878436896 H450.8333564617842 V428.89474073364624 H215.83333650115856 z" id="svg_1" class="" transform="rotate(-22.2894, 333.333, 402.5)" fill="#b6b6b6" fill-opacity="1"/><rect fill="#b6b6b6" style="color: rgb(0, 0, 0);" stroke-dashoffset="" fill-rule="nonzero" id="svg_3" x="177.55418395996094" y="269.8470764160156" width="252.36167907714844" height="123.05351257324219" class="" transform="rotate(-22.3985, 303.735, 331.374)" fill-opacity="1"/><rect fill="#6767e7" style="color: rgb(0, 0, 0);" stroke-dashoffset="" fill-rule="nonzero" id="svg_6" x="349.0613708496094" y="194.20565795898438" width="36.943138122558594" height="95.26165771484375" class="" transform="rotate(-22.2132, 367.533, 241.837)" fill-opacity="1"/><rect fill="#6767e7" style="color: rgb(0, 0, 0);" stroke-dashoffset="" fill-rule="nonzero" x="290.68524169921875" y="217.4582061767578" width="36.943138122558594" height="69.03608703613281" class="" transform="rotate(-22.2132, 309.157, 251.976)" fill-opacity="1" id="svg_13"/><rect fill="#ffffff" style="color: rgb(0, 0, 0);" stroke-dashoffset="" fill-rule="nonzero" id="svg_14" x="214.38128662109375" y="390.2330017089844" width="242.74346923828125" height="43" class="" fill-opacity="1" transform="rotate(-21.3446, 335.753, 411.733)"/></g>

</svg>